<svg id="_01-icons_general_infos_fill" data-name="01-icons/general/infos/fill" xmlns="http://www.w3.org/2000/svg" xmlns:xlink="http://www.w3.org/1999/xlink" width="24" height="24" viewBox="0 0 24 24">
  <defs>
    <clipPath id="clip-path">
      <path id="Page_1" data-name="Page 1" d="M12,24A12,12,0,0,1,3.514,3.514,12,12,0,0,1,20.486,20.486,11.923,11.923,0,0,1,12,24ZM10.8,10.8V18h2.4V10.8Zm0-4.8V8.4h2.4V6Z" fill="#ffc107"/>
    </clipPath>
  </defs>
  <g id="Groupe_7" data-name="Groupe 7">
    <path id="Page_1-2" data-name="Page 1" d="M12,24A12,12,0,0,1,3.514,3.514,12,12,0,0,1,20.486,20.486,11.923,11.923,0,0,1,12,24ZM10.8,10.8V18h2.4V10.8Zm0-4.8V8.4h2.4V6Z" fill="#ffc107"/>
    <g id="Groupe_de_masques_7" data-name="Groupe de masques 7" clip-path="url(#clip-path)">
      <g id="_00-color_neutral-color_dark" data-name="00-color/neutral-color/dark">
        <rect id="Background" width="24" height="24" fill="#212121"/>
      </g>
    </g>
  </g>
</svg>
