<svg id="_01-icons_os_android" data-name="01-icons/os/android" xmlns="http://www.w3.org/2000/svg" xmlns:xlink="http://www.w3.org/1999/xlink" width="40" height="40" viewBox="0 0 40 40">
  <defs>
    <clipPath id="clip-path">
      <path id="Fill_1" data-name="Fill 1" d="M21.25,40a2.528,2.528,0,0,1-2.55-2.5V31.667H15.3V37.5a2.551,2.551,0,0,1-5.1,0V31.667H8.5A1.685,1.685,0,0,1,6.8,30V13.334H27.2V30a1.686,1.686,0,0,1-1.7,1.667H23.8V37.5A2.528,2.528,0,0,1,21.25,40Zm10.2-10a2.528,2.528,0,0,1-2.55-2.5V15.835a2.551,2.551,0,0,1,5.1,0V27.5A2.529,2.529,0,0,1,31.45,30ZM2.55,30A2.528,2.528,0,0,1,0,27.5V15.835a2.528,2.528,0,0,1,2.55-2.5,2.529,2.529,0,0,1,2.551,2.5V27.5A2.529,2.529,0,0,1,2.55,30ZM27.2,11.669H6.8a9.712,9.712,0,0,1,1.14-4.59A10.219,10.219,0,0,1,10.974,3.6L8.746,1.418a.818.818,0,0,1,0-1.174.859.859,0,0,1,1.2,0L12.47,2.719A10.28,10.28,0,0,1,21.5,2.71L24.021.252a.859.859,0,0,1,1.2,0,.819.819,0,0,1,0,1.175L23,3.6a10.172,10.172,0,0,1,3.052,3.471A9.68,9.68,0,0,1,27.2,11.668Zm-6.8-5V8.335h1.7V6.668H20.4Zm-8.5,0V8.335h1.7V6.668H11.9Z" transform="translate(3)" fill="rgba(33,33,33,0.87)"/>
    </clipPath>
  </defs>
  <g id="Groupe_10" data-name="Groupe 10">
    <path id="Fill_1-2" data-name="Fill 1" d="M21.25,40a2.528,2.528,0,0,1-2.55-2.5V31.667H15.3V37.5a2.551,2.551,0,0,1-5.1,0V31.667H8.5A1.685,1.685,0,0,1,6.8,30V13.334H27.2V30a1.686,1.686,0,0,1-1.7,1.667H23.8V37.5A2.528,2.528,0,0,1,21.25,40Zm10.2-10a2.528,2.528,0,0,1-2.55-2.5V15.835a2.551,2.551,0,0,1,5.1,0V27.5A2.529,2.529,0,0,1,31.45,30ZM2.55,30A2.528,2.528,0,0,1,0,27.5V15.835a2.528,2.528,0,0,1,2.55-2.5,2.529,2.529,0,0,1,2.551,2.5V27.5A2.529,2.529,0,0,1,2.55,30ZM27.2,11.669H6.8a9.712,9.712,0,0,1,1.14-4.59A10.219,10.219,0,0,1,10.974,3.6L8.746,1.418a.818.818,0,0,1,0-1.174.859.859,0,0,1,1.2,0L12.47,2.719A10.28,10.28,0,0,1,21.5,2.71L24.021.252a.859.859,0,0,1,1.2,0,.819.819,0,0,1,0,1.175L23,3.6a10.172,10.172,0,0,1,3.052,3.471A9.68,9.68,0,0,1,27.2,11.668Zm-6.8-5V8.335h1.7V6.668H20.4Zm-8.5,0V8.335h1.7V6.668H11.9Z" transform="translate(3)" fill="rgba(33,33,33,0.87)"/>
    <g id="Groupe_de_masques_10" data-name="Groupe de masques 10" clip-path="url(#clip-path)">
      <g id="_00-color_neutral-color_dark" data-name="00-color/neutral-color/dark">
        <rect id="Background" width="40" height="40" fill="#212121"/>
      </g>
    </g>
  </g>
</svg>
