<svg id="_01-icons_social_linkedin" data-name="01-icons/social/linkedin" xmlns="http://www.w3.org/2000/svg" width="16" height="16" viewBox="0 0 16 16">
  <rect id="_01-icons_social_linkedin_background" data-name="01-icons/social/linkedin background" width="16" height="16" fill="#9b9b9b"/>
  <path id="Shape" d="M7.813,14H4.748c0-.073.04-8.719,0-9.511H7.813V5.981A2.757,2.757,0,0,1,10.537,4.4,3.163,3.163,0,0,1,13,5.45a4.877,4.877,0,0,1,1,3.261V14H10.906V9.078c0-1.4-.55-2.167-1.549-2.167A1.6,1.6,0,0,0,7.88,8.077a2,2,0,0,0-.067.678V14ZM3.082,14H.353V4.489H3.082V14ZM1.648,3.3h-.02A1.584,1.584,0,0,1,0,1.652,1.588,1.588,0,0,1,1.667,0,1.582,1.582,0,0,1,3.312,1.65,1.585,1.585,0,0,1,1.648,3.3Z" transform="translate(1 1)" fill="#fff"/>
</svg>
