<svg id="_01-icons_social_instagram" data-name="01-icons/social/instagram" xmlns="http://www.w3.org/2000/svg" width="16" height="16" viewBox="0 0 16 16">
  <rect id="_01-icons_social_instagram_background" data-name="01-icons/social/instagram background" width="16" height="16" fill="#9b9b9b"/>
  <path id="Shape" d="M11.294,14H2.705A2.709,2.709,0,0,1,0,11.294V2.705A2.708,2.708,0,0,1,2.705,0h8.589A2.709,2.709,0,0,1,14,2.705v8.589A2.709,2.709,0,0,1,11.294,14ZM1.364,5.563v5.731a1.343,1.343,0,0,0,1.342,1.342h8.589a1.343,1.343,0,0,0,1.342-1.342V5.563h-2.09A3.827,3.827,0,1,1,3.173,7a3.78,3.78,0,0,1,.283-1.437ZM7,4.535A2.473,2.473,0,0,0,5,5.563a2.464,2.464,0,1,0,4,0A2.473,2.473,0,0,0,7,4.535Zm5.38-2.922-.31,0-2.065.005.008,2.373,2.366-.007Z" transform="translate(1 1)" fill="#fff"/>
</svg>
