<svg id="_01-icons_general_email" data-name="01-icons/general/email" xmlns="http://www.w3.org/2000/svg" xmlns:xlink="http://www.w3.org/1999/xlink" width="24" height="24" viewBox="0 0 24 24">
  <defs>
    <clipPath id="clip-path">
      <path id="Page_1" data-name="Page 1" d="M21.6,19H2.4A2.391,2.391,0,0,1,0,16.625L.012,2.375A2.385,2.385,0,0,1,2.4,0H21.6A2.391,2.391,0,0,1,24,2.375v14.25A2.391,2.391,0,0,1,21.6,19ZM2.4,2.375V4.75L12,10.688,21.6,4.75V2.375L12,8.312Z" transform="translate(0 3)" fill="rgba(117,117,117,0.87)"/>
    </clipPath>
  </defs>
  <g id="Groupe_6" data-name="Groupe 6">
    <path id="Page_1-2" data-name="Page 1" d="M21.6,19H2.4A2.391,2.391,0,0,1,0,16.625L.012,2.375A2.385,2.385,0,0,1,2.4,0H21.6A2.391,2.391,0,0,1,24,2.375v14.25A2.391,2.391,0,0,1,21.6,19ZM2.4,2.375V4.75L12,10.688,21.6,4.75V2.375L12,8.312Z" transform="translate(0 3)" fill="rgba(117,117,117,0.87)"/>
    <g id="Groupe_de_masques_6" data-name="Groupe de masques 6" clip-path="url(#clip-path)">
      <g id="_00-color_neutral-color_dark" data-name="00-color/neutral-color/dark">
        <rect id="Background" width="24" height="24" fill="#212121"/>
      </g>
    </g>
  </g>
</svg>
