<svg id="_01-icons_os_ios" data-name="01-icons/os/ios" xmlns="http://www.w3.org/2000/svg" xmlns:xlink="http://www.w3.org/1999/xlink" width="40" height="40" viewBox="0 0 40 40">
  <defs>
    <clipPath id="clip-path">
      <path id="Fill_3" data-name="Fill 3" d="M23.207,40a6.661,6.661,0,0,1-2.957-.777,7.649,7.649,0,0,0-3.445-.864,8.089,8.089,0,0,0-3.69.9A6.312,6.312,0,0,1,10.342,40a5.073,5.073,0,0,1-3.5-1.614,21.355,21.355,0,0,1-2.75-3.444,23.916,23.916,0,0,1-2.837-5.9A24.177,24.177,0,0,1,0,21.92a13.816,13.816,0,0,1,1.653-7.189A9.834,9.834,0,0,1,9.8,9.674c.06,0,.119,0,.179,0a9.9,9.9,0,0,1,3.861,1.063,6.752,6.752,0,0,0,2.381.737,8.479,8.479,0,0,0,2.422-.652,15.039,15.039,0,0,1,5.066-1.146A8.671,8.671,0,0,1,31,13.645l-.027.016a9.245,9.245,0,0,0-2.3,2.025,8.675,8.675,0,0,0-2,5.635,8.943,8.943,0,0,0,2.708,6.245A8.2,8.2,0,0,0,32,29.352a2.233,2.233,0,0,0-.109.3,20.481,20.481,0,0,1-2.657,5.4C27.553,37.659,25.827,40,23.207,40ZM16.541,9.2A4.319,4.319,0,0,1,16,9.165a6.135,6.135,0,0,1,.378-3.39,10.761,10.761,0,0,1,1.6-2.756A8.3,8.3,0,0,1,23.9,0a8.7,8.7,0,0,1-2.2,6.279,7.6,7.6,0,0,1-2.3,2.076A5.75,5.75,0,0,1,16.541,9.2Z" transform="translate(4)" fill="rgba(33,33,33,0.87)"/>
    </clipPath>
  </defs>
  <g id="Groupe_11" data-name="Groupe 11">
    <path id="Fill_3-2" data-name="Fill 3" d="M23.207,40a6.661,6.661,0,0,1-2.957-.777,7.649,7.649,0,0,0-3.445-.864,8.089,8.089,0,0,0-3.69.9A6.312,6.312,0,0,1,10.342,40a5.073,5.073,0,0,1-3.5-1.614,21.355,21.355,0,0,1-2.75-3.444,23.916,23.916,0,0,1-2.837-5.9A24.177,24.177,0,0,1,0,21.92a13.816,13.816,0,0,1,1.653-7.189A9.834,9.834,0,0,1,9.8,9.674c.06,0,.119,0,.179,0a9.9,9.9,0,0,1,3.861,1.063,6.752,6.752,0,0,0,2.381.737,8.479,8.479,0,0,0,2.422-.652,15.039,15.039,0,0,1,5.066-1.146A8.671,8.671,0,0,1,31,13.645l-.027.016a9.245,9.245,0,0,0-2.3,2.025,8.675,8.675,0,0,0-2,5.635,8.943,8.943,0,0,0,2.708,6.245A8.2,8.2,0,0,0,32,29.352a2.233,2.233,0,0,0-.109.3,20.481,20.481,0,0,1-2.657,5.4C27.553,37.659,25.827,40,23.207,40ZM16.541,9.2A4.319,4.319,0,0,1,16,9.165a6.135,6.135,0,0,1,.378-3.39,10.761,10.761,0,0,1,1.6-2.756A8.3,8.3,0,0,1,23.9,0a8.7,8.7,0,0,1-2.2,6.279,7.6,7.6,0,0,1-2.3,2.076A5.75,5.75,0,0,1,16.541,9.2Z" transform="translate(4)" fill="rgba(33,33,33,0.87)"/>
    <g id="Groupe_de_masques_11" data-name="Groupe de masques 11" clip-path="url(#clip-path)">
      <g id="_00-color_neutral-color_dark" data-name="00-color/neutral-color/dark">
        <rect id="Background" width="40" height="40" fill="#212121"/>
      </g>
    </g>
  </g>
</svg>
