<svg id="_01-icons_device_laptop" data-name="01-icons/device/laptop" xmlns="http://www.w3.org/2000/svg" xmlns:xlink="http://www.w3.org/1999/xlink" width="40" height="40" viewBox="0 0 40 40">
  <defs>
    <clipPath id="clip-path">
      <path id="Page_1" data-name="Page 1" d="M40,27.273H0V23.864H6.666a3.376,3.376,0,0,1-3.333-3.409V3.409A3.375,3.375,0,0,1,6.666,0H33.333a3.376,3.376,0,0,1,3.334,3.409V20.454a3.376,3.376,0,0,1-3.334,3.409H40v3.408ZM6.666,3.409V20.454H33.333V3.409Z" transform="translate(0 6)" fill="rgba(33,33,33,0.87)"/>
    </clipPath>
  </defs>
  <g id="Groupe_1" data-name="Groupe 1">
    <path id="Page_1-2" data-name="Page 1" d="M40,27.273H0V23.864H6.666a3.376,3.376,0,0,1-3.333-3.409V3.409A3.375,3.375,0,0,1,6.666,0H33.333a3.376,3.376,0,0,1,3.334,3.409V20.454a3.376,3.376,0,0,1-3.334,3.409H40v3.408ZM6.666,3.409V20.454H33.333V3.409Z" transform="translate(0 6)" fill="rgba(33,33,33,0.87)"/>
    <g id="Groupe_de_masques_1" data-name="Groupe de masques 1" clip-path="url(#clip-path)">
      <g id="_00-color_neutral-color_dark" data-name="00-color/neutral-color/dark">
        <rect id="Background" width="40" height="40" fill="#212121"/>
      </g>
    </g>
  </g>
</svg>
