<svg id="_01-icons_general_close_outline" data-name="01-icons/general/close/outline" xmlns="http://www.w3.org/2000/svg" xmlns:xlink="http://www.w3.org/1999/xlink" width="24" height="24" viewBox="0 0 24 24">
  <defs>
    <clipPath id="clip-path">
      <path id="Page_1" data-name="Page 1" d="M12,24A12,12,0,0,1,3.514,3.514,12,12,0,0,1,20.486,20.486,11.923,11.923,0,0,1,12,24ZM12,2.4A9.6,9.6,0,1,0,21.6,12,9.61,9.61,0,0,0,12,2.4ZM8.169,16.8h0L7.2,15.83,11.03,12,7.2,8.17l.97-.97L12,11.03,15.83,7.2l.97.97L12.97,12l3.83,3.83-.969.969L12,12.971,8.17,16.8Z" fill="#ffc107"/>
    </clipPath>
  </defs>
  <g id="Groupe_5" data-name="Groupe 5">
    <path id="Page_1-2" data-name="Page 1" d="M12,24A12,12,0,0,1,3.514,3.514,12,12,0,0,1,20.486,20.486,11.923,11.923,0,0,1,12,24ZM12,2.4A9.6,9.6,0,1,0,21.6,12,9.61,9.61,0,0,0,12,2.4ZM8.169,16.8h0L7.2,15.83,11.03,12,7.2,8.17l.97-.97L12,11.03,15.83,7.2l.97.97L12.97,12l3.83,3.83-.969.969L12,12.971,8.17,16.8Z" fill="#ffc107"/>
    <g id="Groupe_de_masques_5" data-name="Groupe de masques 5" clip-path="url(#clip-path)">
      <g id="_00-color_accent-color_yellow" data-name="00-color/accent-color/yellow">
        <rect id="Background" width="24" height="24" fill="#ffc107"/>
      </g>
    </g>
  </g>
</svg>
